<?xml version="1.0" encoding="UTF-8"?>
<!DOCTYPE svg PUBLIC "-//W3C//DTD SVG 1.1//EN" "http://www.w3.org/Graphics/SVG/1.1/DTD/svg11.dtd">
<svg xmlns="http://www.w3.org/2000/svg" version="1.1" width="680px" height="900px" style="shape-rendering:geometricPrecision; text-rendering:geometricPrecision; image-rendering:optimizeQuality; fill-rule:evenodd; clip-rule:evenodd" xmlns:xlink="http://www.w3.org/1999/xlink">
<g><path style="opacity:0.989" fill="#fe2a43" d="M 318.5,-0.5 C 330.5,-0.5 342.5,-0.5 354.5,-0.5C 415.488,8.66444 459.322,40.9978 486,96.5C 510.197,158.954 501.53,216.287 460,268.5C 448.111,281.401 434.778,292.401 420,301.5C 418.233,300.66 416.899,299.327 416,297.5C 400.929,271.939 386.096,246.272 371.5,220.5C 377.068,214.429 382.901,208.429 389,202.5C 405.035,178.843 406.702,154.176 394,128.5C 373.205,98.3465 345.372,89.1798 310.5,101C 280.112,116.606 267.279,141.439 272,175.5C 276.228,193.3 285.894,207.3 301,217.5C 301.309,218.766 301.809,219.933 302.5,221C 286.699,248.111 270.532,274.944 254,301.5C 208.522,273.959 182.189,233.625 175,180.5C 170.108,115.463 193.941,63.9632 246.5,26C 268.666,11.8924 292.666,3.05911 318.5,-0.5 Z"/></g>
<g><path style="opacity:0.987" fill="#8ad966" d="M -0.5,487.5 C -0.5,475.167 -0.5,462.833 -0.5,450.5C 9.67746,386.322 44.6775,341.488 104.5,316C 150.784,299.844 195.784,302.844 239.5,325C 240.357,325.689 241.023,326.522 241.5,327.5C 225.878,354.581 209.878,381.415 193.5,408C 188.63,408.249 183.963,407.249 179.5,405C 143.549,398.191 117.383,411.024 101,443.5C 90.579,473.987 97.4124,499.82 121.5,521C 147.641,538.578 173.975,538.911 200.5,522C 218.275,508.284 227.442,490.118 228,467.5C 228.5,465.667 229.667,464.5 231.5,464C 262.498,463.5 293.498,463.333 324.5,463.5C 322.989,536.069 289.655,587.903 224.5,619C 164.048,641.756 108.381,633.423 57.5,594C 25.0363,565.69 5.70297,530.19 -0.5,487.5 Z"/></g>
<g><path style="opacity:0.987" fill="#138cfe" d="M 679.5,448.5 C 679.5,461.5 679.5,474.5 679.5,487.5C 669.875,548.293 637.208,591.793 581.5,618C 523.477,640.232 469.144,633.566 418.5,598C 366.32,554.815 346.154,499.648 358,432.5C 369.131,386.891 394.631,351.891 434.5,327.5C 449.532,352.036 464.365,376.702 479,401.5C 481.208,404.554 482.208,407.887 482,411.5C 456.278,430.327 446.945,455.327 454,486.5C 466.627,520.572 491.127,536.072 527.5,533C 562.133,524.942 580.799,503.109 583.5,467.5C 582.151,444.124 571.985,425.791 553,412.5C 552.362,411.391 551.862,410.225 551.5,409C 567.13,381.567 583.13,354.4 599.5,327.5C 644.941,355.372 671.607,395.705 679.5,448.5 Z"/></g>
<g><path style="opacity:0.966" fill="#ffffff" d="M 58.5,718.5 C 73.8866,717.48 88.5533,720.647 102.5,728C 113.303,738.448 119.136,751.282 120,766.5C 122.969,789.535 121.302,812.202 115,834.5C 107.611,850.294 95.1111,858.794 77.5,860C 59.9174,862.689 43.2507,860.023 27.5,852C 17.0124,842.524 11.1791,830.691 10,816.5C 8.47458,801.199 8.14125,785.866 9,770.5C 9.65564,757.536 13.3223,745.536 20,734.5C 26.379,727.558 34.2123,723.058 43.5,721C 48.6609,720.268 53.6609,719.434 58.5,718.5 Z M 56.5,741.5 C 76.175,737.564 88.0083,745.231 92,764.5C 94.2594,782.898 93.926,801.231 91,819.5C 88.5903,830.577 81.7569,836.743 70.5,838C 50.4438,840.911 39.2772,832.411 37,812.5C 34.5849,794.041 35.2516,775.707 39,757.5C 41.8522,748.811 47.6856,743.478 56.5,741.5 Z"/></g>
<g><path style="opacity:0.96" fill="#ffffff" d="M 491.5,719.5 C 508.657,718.701 525.657,719.868 542.5,723C 543.704,724.353 544.371,726.019 544.5,728C 543.955,733.196 543.288,738.363 542.5,743.5C 527.181,742.474 511.847,742.307 496.5,743C 487.667,745.167 482.167,750.667 480,759.5C 475.882,779.616 475.882,799.949 480,820.5C 482.379,830.21 488.545,835.71 498.5,837C 514.217,837.787 529.884,837.287 545.5,835.5C 546.129,840.995 546.796,846.495 547.5,852C 547.167,853.167 546.833,854.333 546.5,855.5C 527.08,860.547 507.413,861.713 487.5,859C 468.676,854.842 457.176,843.342 453,824.5C 448.102,800.091 448.435,775.757 454,751.5C 459.911,733.088 472.411,722.421 491.5,719.5 Z"/></g>
<g><path style="opacity:0.958" fill="#ffffff" d="M 552.5,721.5 C 561.418,721.183 570.251,721.516 579,722.5C 589.797,761.024 599.964,799.691 609.5,838.5C 610.833,838.5 612.167,838.5 613.5,838.5C 623.506,800.142 633.673,761.809 644,723.5C 652.566,721.546 661.399,720.88 670.5,721.5C 658.519,764.614 646.019,807.614 633,850.5C 632.117,853.102 630.617,855.269 628.5,857C 618.574,858.59 608.574,858.923 598.5,858C 594.98,857.496 592.48,855.663 591,852.5C 577.695,808.944 564.862,765.277 552.5,721.5 Z"/></g>
<g><path style="opacity:0.958" fill="#ffffff" d="M 187.5,758.5 C 196.993,757.415 205.993,758.915 214.5,763C 222.919,771.005 227.752,780.839 229,792.5C 231.515,809.495 230.182,826.161 225,842.5C 220.84,850.677 214.34,856.177 205.5,859C 189.961,862.354 175.294,860.187 161.5,852.5C 160.501,867.152 160.167,881.818 160.5,896.5C 152.167,896.5 143.833,896.5 135.5,896.5C 135.5,851.167 135.5,805.833 135.5,760.5C 142.5,760.5 149.5,760.5 156.5,760.5C 156.765,764.853 157.265,769.187 158,773.5C 166.751,766.208 176.584,761.208 187.5,758.5 Z M 181.5,779.5 C 193.512,777.073 200.679,781.74 203,793.5C 205.567,807.465 204.567,821.132 200,834.5C 198.048,836.894 195.548,838.394 192.5,839C 181.739,839.955 171.239,838.788 161,835.5C 160.333,820.5 160.333,805.5 161,790.5C 167.412,785.88 174.246,782.213 181.5,779.5 Z"/></g>
<g><path style="opacity:0.962" fill="#ffffff" d="M 284.5,757.5 C 298.541,756.672 311.541,759.839 323.5,767C 334.66,780.802 336.16,795.635 328,811.5C 324.731,814.883 320.897,817.383 316.5,819C 300.543,820.404 284.543,820.904 268.5,820.5C 268.526,828.737 272.193,834.571 279.5,838C 285.269,839.066 291.102,839.566 297,839.5C 307.53,839.224 318.03,838.558 328.5,837.5C 328.886,842.201 329.552,846.867 330.5,851.5C 330.392,852.442 330.059,853.275 329.5,854C 321.575,857.6 313.241,859.6 304.5,860C 292.395,861.036 280.395,860.369 268.5,858C 250.991,851.869 242.158,839.369 242,820.5C 239.865,804.112 242.198,788.446 249,773.5C 258.461,762.849 270.294,757.515 284.5,757.5 Z M 281.5,778.5 C 287.176,778.334 292.843,778.501 298.5,779C 302.538,779.601 305.371,781.768 307,785.5C 307.879,790.287 307.545,794.953 306,799.5C 303.903,800.991 301.57,801.991 299,802.5C 288.903,801.36 278.737,801.36 268.5,802.5C 267.753,795.921 268.92,789.588 272,783.5C 274.907,781.132 278.074,779.465 281.5,778.5 Z"/></g>
<g><path style="opacity:0.966" fill="#ffffff" d="M 406.5,757.5 C 420.473,756.563 429.973,762.563 435,775.5C 436.632,802.784 436.965,830.118 436,857.5C 427.667,858.833 419.333,858.833 411,857.5C 410.667,833.167 410.333,808.833 410,784.5C 408.063,780.614 404.897,778.947 400.5,779.5C 389.88,780.643 380.213,784.31 371.5,790.5C 370.667,812.826 370.167,835.159 370,857.5C 361.919,858.482 353.752,858.816 345.5,858.5C 345.384,826.392 345.05,794.558 344.5,763C 344.957,762.586 345.291,762.086 345.5,761.5C 352.468,760.503 359.468,760.17 366.5,760.5C 366.962,765.162 367.462,769.829 368,774.5C 379.29,765.1 392.123,759.434 406.5,757.5 Z"/></g>
</svg>
